<svg width="730" height="279" viewBox="0 0 730 279" fill="none" xmlns="http://www.w3.org/2000/svg">
<path d="M271.719 80.4417C276.031 80.4417 279.81 81.3221 283.058 83.083C286.306 84.7888 288.798 87.2099 290.533 90.3465C292.325 93.483 293.221 97.1147 293.221 101.242C293.221 105.479 292.157 109.248 290.029 112.55C287.958 115.796 285.046 118.327 281.294 120.143C277.543 121.904 273.287 122.785 268.527 122.785C260.632 122.785 254.417 120.308 249.881 115.356C245.401 110.349 243.162 103.03 243.162 93.4004C243.162 84.4861 245.122 77.3877 249.041 72.1052C253.017 66.7676 259.092 63.2735 267.267 61.6227L288.77 57.4131L290.533 68.4735L271.551 72.1877C266.4 73.1782 262.564 74.829 260.044 77.1401C257.58 79.4512 256.125 82.7253 255.677 86.9623C257.636 84.8713 259.988 83.2756 262.732 82.175C265.476 81.0195 268.471 80.4417 271.719 80.4417ZM268.611 112.797C271.971 112.797 274.659 111.724 276.675 109.578C278.746 107.432 279.782 104.708 279.782 101.407C279.782 98.0501 278.746 95.3814 276.675 93.4004C274.659 91.4195 271.971 90.429 268.611 90.429C265.196 90.429 262.452 91.4195 260.38 93.4004C258.308 95.3814 257.272 98.0501 257.272 101.407C257.272 104.763 258.336 107.515 260.464 109.661C262.592 111.752 265.308 112.797 268.611 112.797Z" fill="#F4F4F4"/>
<path d="M348.673 77.3877L328.263 124.518C326.191 129.635 323.615 133.24 320.536 135.331C317.512 137.422 313.844 138.467 309.533 138.467C307.181 138.467 304.857 138.109 302.561 137.394C300.266 136.679 298.39 135.688 296.934 134.423L301.721 125.261C302.729 126.141 303.877 126.829 305.165 127.324C306.509 127.819 307.825 128.067 309.113 128.067C310.905 128.067 312.36 127.627 313.48 126.746C314.6 125.921 315.608 124.518 316.504 122.537L316.672 122.124L297.102 77.3877H310.625L323.307 107.515L336.074 77.3877H348.673Z" fill="#F4F4F4"/>
<path d="M383.308 80.4417C387.619 80.4417 391.399 81.3221 394.646 83.083C397.894 84.7888 400.386 87.2099 402.122 90.3465C403.914 93.483 404.81 97.1147 404.81 101.242C404.81 105.479 403.746 109.248 401.618 112.55C399.546 115.796 396.634 118.327 392.883 120.143C389.131 121.904 384.875 122.785 380.116 122.785C372.221 122.785 366.005 120.308 361.47 115.356C356.99 110.349 354.75 103.03 354.75 93.4004C354.75 84.4861 356.71 77.3877 360.63 72.1052C364.605 66.7676 370.681 63.2735 378.856 61.6227L400.358 57.4131L402.122 68.4735L383.14 72.1877C377.988 73.1782 374.152 74.829 371.633 77.1401C369.169 79.4512 367.713 82.7253 367.265 86.9623C369.225 84.8713 371.577 83.2756 374.32 82.175C377.064 81.0195 380.06 80.4417 383.308 80.4417ZM380.2 112.797C383.559 112.797 386.247 111.724 388.263 109.578C390.335 107.432 391.371 104.708 391.371 101.407C391.371 98.0501 390.335 95.3814 388.263 93.4004C386.247 91.4195 383.559 90.429 380.2 90.429C376.784 90.429 374.04 91.4195 371.969 93.4004C369.897 95.3814 368.861 98.0501 368.861 101.407C368.861 104.763 369.925 107.515 372.053 109.661C374.18 111.752 376.896 112.797 380.2 112.797Z" fill="#F4F4F4"/>
<path d="M460.262 77.3877L439.851 124.518C437.78 129.635 435.204 133.24 432.124 135.331C429.1 137.422 425.433 138.467 421.121 138.467C418.769 138.467 416.446 138.109 414.15 137.394C411.854 136.679 409.978 135.688 408.522 134.423L413.31 125.261C414.318 126.141 415.466 126.829 416.754 127.324C418.097 127.819 419.413 128.067 420.701 128.067C422.493 128.067 423.949 127.627 425.069 126.746C426.189 125.921 427.197 124.518 428.092 122.537L428.26 122.124L408.69 77.3877H422.213L434.896 107.515L447.663 77.3877H460.262Z" fill="#F4F4F4"/>
<path d="M489.009 104.956H482.205V121.794H469.102V77.3877H482.205V94.6385H489.261L501.523 77.3877H515.466L499.676 98.683L516.558 121.794H501.104L489.009 104.956Z" fill="#F4F4F4"/>
<path d="M542.246 76.7274C549.245 76.7274 554.621 78.3782 558.372 81.6798C562.124 84.9263 564 89.8512 564 96.4544V121.794H551.737V116.264C549.273 120.391 544.682 122.454 537.962 122.454C534.491 122.454 531.467 121.877 528.891 120.721C526.371 119.565 524.44 117.97 523.096 115.934C521.752 113.898 521.08 111.587 521.08 109C521.08 104.873 522.648 101.627 525.783 99.2607C528.975 96.8946 533.875 95.7115 540.482 95.7115H550.897C550.897 92.9052 550.029 90.7591 548.293 89.2734C546.558 87.7327 543.954 86.9623 540.482 86.9623C538.074 86.9623 535.695 87.3475 533.343 88.1179C531.047 88.8332 529.087 89.8237 527.463 91.0893L522.76 82.0925C525.224 80.3867 528.163 79.066 531.579 78.1306C535.051 77.1951 538.606 76.7274 542.246 76.7274ZM541.238 113.788C543.478 113.788 545.466 113.292 547.202 112.302C548.937 111.256 550.169 109.743 550.897 107.762V103.223H541.91C536.534 103.223 533.847 104.956 533.847 108.423C533.847 110.073 534.491 111.394 535.779 112.385C537.122 113.32 538.942 113.788 541.238 113.788Z" fill="#F4F4F4"/>
<path d="M243.32 178.027H260.6V182.827H243.32V178.027ZM249.4 179.307H254.52V207.467H249.4V179.307ZM265.504 194.027V189.675H285.152C284.981 188.139 284.555 186.795 283.872 185.643C283.232 184.448 282.315 183.531 281.12 182.891C279.968 182.208 278.539 181.867 276.832 181.867C275.125 181.867 273.568 182.23 272.16 182.955C270.752 183.68 269.621 184.726 268.768 186.091C267.957 187.414 267.552 188.992 267.552 190.827L267.424 192.747C267.424 195.008 267.808 196.928 268.576 198.507C269.344 200.086 270.432 201.28 271.84 202.091C273.248 202.902 274.912 203.307 276.832 203.307C278.283 203.307 279.563 203.094 280.672 202.667C281.824 202.198 282.848 201.579 283.744 200.811C284.64 200 285.408 199.062 286.048 197.995L290.208 200.619C289.227 202.112 288.139 203.435 286.944 204.587C285.749 205.696 284.299 206.571 282.592 207.211C280.885 207.808 278.752 208.107 276.192 208.107C273.547 208.107 271.157 207.446 269.024 206.123C266.933 204.8 265.269 202.987 264.032 200.683C262.837 198.336 262.24 195.691 262.24 192.747C262.24 192.192 262.261 191.659 262.304 191.147C262.347 190.635 262.411 190.123 262.496 189.611C262.923 187.179 263.776 185.046 265.056 183.211C266.336 181.376 267.979 179.947 269.984 178.923C272.032 177.899 274.315 177.387 276.832 177.387C279.605 177.387 282.037 178.006 284.128 179.243C286.219 180.48 287.84 182.23 288.992 184.491C290.144 186.71 290.72 189.376 290.72 192.491C290.72 192.747 290.72 193.003 290.72 193.259C290.72 193.515 290.699 193.771 290.656 194.027H265.504ZM300.042 192.747C300.042 194.795 300.468 196.608 301.322 198.187C302.218 199.766 303.412 201.024 304.906 201.963C306.442 202.859 308.17 203.307 310.09 203.307C311.668 203.307 313.14 203.072 314.506 202.603C315.914 202.091 317.13 201.43 318.154 200.619C319.178 199.766 319.903 198.87 320.33 197.931V204.331C319.306 205.526 317.834 206.464 315.914 207.147C314.036 207.787 312.095 208.107 310.09 208.107C307.231 208.107 304.65 207.446 302.345 206.123C300.042 204.8 298.207 202.987 296.842 200.683C295.519 198.336 294.858 195.691 294.858 192.747C294.858 189.76 295.519 187.115 296.842 184.811C298.207 182.507 300.042 180.694 302.345 179.371C304.65 178.048 307.231 177.387 310.09 177.387C312.095 177.387 314.036 177.728 315.914 178.411C317.834 179.051 319.306 179.968 320.33 181.163V187.563C319.903 186.582 319.178 185.686 318.154 184.875C317.13 184.064 315.914 183.424 314.506 182.955C313.14 182.443 311.668 182.187 310.09 182.187C308.17 182.187 306.442 182.635 304.906 183.531C303.412 184.427 302.218 185.686 301.322 187.307C300.468 188.886 300.042 190.699 300.042 192.747ZM323.82 178.027H341.1V182.827H323.82V178.027ZM329.9 179.307H335.02V207.467H329.9V179.307ZM342.74 192.747C342.74 189.76 343.401 187.115 344.724 184.811C346.089 182.507 347.924 180.694 350.228 179.371C352.532 178.048 355.113 177.387 357.972 177.387C360.873 177.387 363.455 178.048 365.716 179.371C368.02 180.694 369.833 182.507 371.156 184.811C372.521 187.115 373.204 189.76 373.204 192.747C373.204 195.691 372.521 198.336 371.156 200.683C369.833 202.987 368.02 204.8 365.716 206.123C363.455 207.446 360.873 208.107 357.972 208.107C355.113 208.107 352.532 207.446 350.228 206.123C347.924 204.8 346.089 202.987 344.724 200.683C343.401 198.336 342.74 195.691 342.74 192.747ZM347.924 192.747C347.924 194.795 348.351 196.608 349.204 198.187C350.1 199.766 351.295 201.024 352.788 201.963C354.324 202.859 356.052 203.307 357.972 203.307C359.892 203.307 361.599 202.859 363.092 201.963C364.628 201.024 365.823 199.766 366.676 198.187C367.572 196.608 368.02 194.795 368.02 192.747C368.02 190.699 367.572 188.886 366.676 187.307C365.823 185.686 364.628 184.427 363.092 183.531C361.599 182.635 359.892 182.187 357.972 182.187C356.052 182.187 354.324 182.635 352.788 183.531C351.295 184.427 350.1 185.686 349.204 187.307C348.351 188.886 347.924 190.699 347.924 192.747ZM383.246 192.107H391.758C393.806 192.107 395.64 192.32 397.262 192.747C398.883 193.174 400.163 193.92 401.102 194.987C402.04 196.054 402.51 197.547 402.51 199.467C402.51 201.686 401.763 203.584 400.27 205.163C398.819 206.699 396.408 207.467 393.038 207.467H383.246V202.987H391.758C393.678 202.987 395.086 202.582 395.982 201.771C396.92 200.96 397.39 199.979 397.39 198.827C397.39 198.23 397.262 197.696 397.006 197.227C396.792 196.758 396.451 196.331 395.982 195.947C395.555 195.563 394.979 195.286 394.253 195.115C393.571 194.902 392.739 194.795 391.758 194.795H383.246V192.107ZM383.246 193.387V190.379H391.118C391.886 190.379 392.568 190.294 393.166 190.123C393.806 189.91 394.339 189.611 394.766 189.227C395.192 188.843 395.512 188.416 395.726 187.947C395.982 187.435 396.11 186.902 396.11 186.347C396.11 185.195 395.662 184.278 394.766 183.595C393.87 182.87 392.654 182.507 391.118 182.507H383.246V178.027H391.118C392.952 178.027 394.616 178.304 396.11 178.859C397.646 179.371 398.883 180.224 399.822 181.419C400.76 182.571 401.23 184.107 401.23 186.027C401.23 187.691 400.76 189.078 399.822 190.187C398.883 191.254 397.646 192.064 396.11 192.619C394.616 193.131 392.952 193.387 391.118 193.387H383.246ZM380.238 178.027H385.358V207.467H380.238V178.027ZM406.678 192.747C406.678 189.76 407.339 187.115 408.661 184.811C410.027 182.507 411.862 180.694 414.166 179.371C416.47 178.048 419.051 177.387 421.91 177.387C424.811 177.387 427.392 178.048 429.654 179.371C431.958 180.694 433.771 182.507 435.094 184.811C436.459 187.115 437.142 189.76 437.142 192.747C437.142 195.691 436.459 198.336 435.094 200.683C433.771 202.987 431.958 204.8 429.654 206.123C427.392 207.446 424.811 208.107 421.91 208.107C419.051 208.107 416.47 207.446 414.166 206.123C411.862 204.8 410.027 202.987 408.661 200.683C407.339 198.336 406.678 195.691 406.678 192.747ZM411.862 192.747C411.862 194.795 412.288 196.608 413.142 198.187C414.038 199.766 415.232 201.024 416.726 201.963C418.262 202.859 419.99 203.307 421.91 203.307C423.83 203.307 425.536 202.859 427.03 201.963C428.566 201.024 429.76 199.766 430.614 198.187C431.51 196.608 431.958 194.795 431.958 192.747C431.958 190.699 431.51 188.886 430.614 187.307C429.76 185.686 428.566 184.427 427.03 183.531C425.536 182.635 423.83 182.187 421.91 182.187C419.99 182.187 418.262 182.635 416.726 183.531C415.232 184.427 414.038 185.686 413.142 187.307C412.288 188.886 411.862 190.699 411.862 192.747ZM444.879 194.027V189.675H464.527C464.356 188.139 463.93 186.795 463.247 185.643C462.607 184.448 461.69 183.531 460.495 182.891C459.343 182.208 457.914 181.867 456.207 181.867C454.5 181.867 452.943 182.23 451.535 182.955C450.127 183.68 448.996 184.726 448.143 186.091C447.332 187.414 446.927 188.992 446.927 190.827L446.799 192.747C446.799 195.008 447.183 196.928 447.951 198.507C448.719 200.086 449.807 201.28 451.215 202.091C452.623 202.902 454.287 203.307 456.207 203.307C457.658 203.307 458.938 203.094 460.047 202.667C461.199 202.198 462.223 201.579 463.119 200.811C464.015 200 464.783 199.062 465.423 197.995L469.583 200.619C468.602 202.112 467.514 203.435 466.319 204.587C465.124 205.696 463.674 206.571 461.967 207.211C460.26 207.808 458.127 208.107 455.567 208.107C452.922 208.107 450.532 207.446 448.399 206.123C446.308 204.8 444.644 202.987 443.407 200.683C442.212 198.336 441.615 195.691 441.615 192.747C441.615 192.192 441.636 191.659 441.679 191.147C441.722 190.635 441.786 190.123 441.871 189.611C442.298 187.179 443.151 185.046 444.431 183.211C445.711 181.376 447.354 179.947 449.359 178.923C451.407 177.899 453.69 177.387 456.207 177.387C458.98 177.387 461.412 178.006 463.503 179.243C465.594 180.48 467.215 182.23 468.367 184.491C469.519 186.71 470.095 189.376 470.095 192.491C470.095 192.747 470.095 193.003 470.095 193.259C470.095 193.515 470.074 193.771 470.031 194.027H444.879ZM506.732 192.747V189.547C508.695 189.547 510.103 189.184 510.956 188.459C511.809 187.691 512.236 186.774 512.236 185.707C512.236 184.555 511.809 183.659 510.956 183.019C510.103 182.336 508.908 181.995 507.372 181.995C506.092 181.995 505.025 182.251 504.172 182.763C503.361 183.232 502.764 183.83 502.38 184.555C501.996 185.238 501.804 185.92 501.804 186.603H496.62C496.62 184.939 497.089 183.403 498.028 181.995C498.967 180.587 500.247 179.478 501.868 178.667C503.489 177.814 505.324 177.387 507.372 177.387C509.292 177.387 511.02 177.75 512.556 178.475C514.092 179.2 515.287 180.16 516.14 181.355C517.036 182.55 517.484 183.872 517.484 185.323C517.484 187.456 516.524 189.227 514.604 190.635C512.727 192.043 510.103 192.747 506.732 192.747ZM507.244 208.107C503.788 208.107 501.015 207.168 498.924 205.291C496.876 203.414 495.681 201.046 495.34 198.187H500.524C500.823 199.595 501.463 200.854 502.444 201.963C503.425 203.072 505.025 203.627 507.244 203.627C508.609 203.627 509.761 203.435 510.7 203.051C511.681 202.667 512.428 202.112 512.94 201.387C513.452 200.662 513.708 199.83 513.708 198.891C513.708 197.867 513.431 196.992 512.876 196.267C512.364 195.542 511.575 194.987 510.508 194.603C509.484 194.219 508.225 194.027 506.732 194.027V190.827C510.401 190.827 513.324 191.467 515.5 192.747C517.676 194.027 518.764 196.054 518.764 198.827C518.764 200.747 518.231 202.411 517.164 203.819C516.14 205.184 514.753 206.251 513.004 207.019C511.255 207.744 509.335 208.107 507.244 208.107ZM528.729 198.827C528.729 199.851 529.006 200.726 529.561 201.451C530.116 202.134 530.862 202.667 531.801 203.051C532.74 203.392 533.785 203.563 534.937 203.563C536.644 203.563 538.158 203.307 539.481 202.795C540.804 202.283 541.828 201.472 542.553 200.363C543.321 199.254 543.705 197.782 543.705 195.947L544.729 199.147C544.729 201.024 544.217 202.646 543.193 204.011C542.212 205.334 540.889 206.358 539.225 207.083C537.561 207.766 535.705 208.107 533.657 208.107C531.822 208.107 530.137 207.766 528.601 207.083C527.065 206.4 525.828 205.398 524.889 204.075C523.993 202.71 523.545 201.024 523.545 199.019C523.545 196.928 524.057 195.158 525.081 193.707C526.105 192.256 527.556 191.147 529.433 190.379C531.31 189.568 533.529 189.163 536.089 189.163C537.966 189.163 539.566 189.419 540.889 189.931C542.254 190.4 543.342 190.955 544.153 191.595C544.964 192.192 545.518 192.683 545.817 193.067V196.075C544.366 195.051 542.894 194.304 541.401 193.835C539.908 193.323 538.222 193.067 536.345 193.067C534.638 193.067 533.209 193.302 532.057 193.771C530.948 194.24 530.116 194.902 529.561 195.755C529.006 196.608 528.729 197.632 528.729 198.827ZM528.729 184.939L526.233 181.035C527.342 180.224 528.836 179.414 530.713 178.603C532.59 177.792 534.852 177.387 537.497 177.387C539.758 177.387 541.721 177.75 543.385 178.475C545.092 179.158 546.414 180.16 547.353 181.483C548.334 182.806 548.825 184.427 548.825 186.347V207.467H543.705V186.347C543.705 184.854 543.065 183.744 541.785 183.019C540.548 182.251 539.118 181.867 537.497 181.867C536.089 181.867 534.809 182.059 533.657 182.443C532.505 182.784 531.502 183.211 530.649 183.723C529.838 184.192 529.198 184.598 528.729 184.939ZM573.488 186.859L564.848 205.547H559.088L573.488 175.787L587.888 205.547H582.128L573.488 186.859ZM586.608 207.467H560.688V213.227H555.248V202.667H591.728V213.227H586.608V207.467ZM601.729 198.827C601.729 199.851 602.006 200.726 602.561 201.451C603.116 202.134 603.862 202.667 604.801 203.051C605.74 203.392 606.785 203.563 607.937 203.563C609.644 203.563 611.158 203.307 612.481 202.795C613.804 202.283 614.828 201.472 615.553 200.363C616.321 199.254 616.705 197.782 616.705 195.947L617.729 199.147C617.729 201.024 617.217 202.646 616.193 204.011C615.212 205.334 613.889 206.358 612.225 207.083C610.561 207.766 608.705 208.107 606.657 208.107C604.822 208.107 603.137 207.766 601.601 207.083C600.065 206.4 598.828 205.398 597.889 204.075C596.993 202.71 596.545 201.024 596.545 199.019C596.545 196.928 597.057 195.158 598.081 193.707C599.105 192.256 600.556 191.147 602.433 190.379C604.31 189.568 606.529 189.163 609.089 189.163C610.966 189.163 612.566 189.419 613.889 189.931C615.254 190.4 616.342 190.955 617.153 191.595C617.964 192.192 618.518 192.683 618.817 193.067V196.075C617.366 195.051 615.894 194.304 614.401 193.835C612.908 193.323 611.222 193.067 609.345 193.067C607.638 193.067 606.209 193.302 605.057 193.771C603.948 194.24 603.116 194.902 602.561 195.755C602.006 196.608 601.729 197.632 601.729 198.827ZM601.729 184.939L599.233 181.035C600.342 180.224 601.836 179.414 603.713 178.603C605.59 177.792 607.852 177.387 610.497 177.387C612.758 177.387 614.721 177.75 616.385 178.475C618.092 179.158 619.414 180.16 620.353 181.483C621.334 182.806 621.825 184.427 621.825 186.347V207.467H616.705V186.347C616.705 184.854 616.065 183.744 614.785 183.019C613.548 182.251 612.118 181.867 610.497 181.867C609.089 181.867 607.809 182.059 606.657 182.443C605.505 182.784 604.502 183.211 603.649 183.723C602.838 184.192 602.198 184.598 601.729 184.939ZM633.496 194.347V189.547H655.256V194.347H633.496ZM651.928 178.027H657.048V207.467H651.928V178.027ZM630.488 178.027H635.608V207.467H630.488V178.027ZM691.315 183.147L666.995 209.707L667.315 202.347L691.635 175.787L691.315 183.147ZM672.115 178.027V202.667L666.995 209.707V178.027H672.115ZM691.635 175.787V207.467H686.515V182.827L691.635 175.787ZM702.254 194.027V189.675H721.902C721.731 188.139 721.305 186.795 720.622 185.643C719.982 184.448 719.065 183.531 717.87 182.891C716.718 182.208 715.289 181.867 713.582 181.867C711.875 181.867 710.318 182.23 708.91 182.955C707.502 183.68 706.371 184.726 705.518 186.091C704.707 187.414 704.302 188.992 704.302 190.827L704.174 192.747C704.174 195.008 704.558 196.928 705.326 198.507C706.094 200.086 707.182 201.28 708.59 202.091C709.998 202.902 711.662 203.307 713.582 203.307C715.033 203.307 716.313 203.094 717.422 202.667C718.574 202.198 719.598 201.579 720.494 200.811C721.39 200 722.158 199.062 722.798 197.995L726.958 200.619C725.977 202.112 724.889 203.435 723.694 204.587C722.499 205.696 721.049 206.571 719.342 207.211C717.635 207.808 715.502 208.107 712.942 208.107C710.297 208.107 707.907 207.446 705.774 206.123C703.683 204.8 702.019 202.987 700.782 200.683C699.587 198.336 698.99 195.691 698.99 192.747C698.99 192.192 699.011 191.659 699.054 191.147C699.097 190.635 699.161 190.123 699.246 189.611C699.673 187.179 700.526 185.046 701.806 183.211C703.086 181.376 704.729 179.947 706.734 178.923C708.782 177.899 711.065 177.387 713.582 177.387C716.355 177.387 718.787 178.006 720.878 179.243C722.969 180.48 724.59 182.23 725.742 184.491C726.894 186.71 727.47 189.376 727.47 192.491C727.47 192.747 727.47 193.003 727.47 193.259C727.47 193.515 727.449 193.771 727.406 194.027H702.254ZM245.56 240.027H260.28V244.827H245.56V240.027ZM259.768 225.691C259.341 224.966 258.829 224.518 258.232 224.347C257.677 224.134 257.144 224.027 256.632 224.027C255.992 224.027 255.437 224.219 254.968 224.603C254.541 224.944 254.2 225.542 253.944 226.395C253.688 227.248 253.56 228.379 253.56 229.787V269.467H248.44V229.147C248.44 226.8 248.781 224.88 249.464 223.387C250.147 221.894 251.107 220.784 252.344 220.059C253.624 219.291 255.16 218.907 256.952 218.907C257.891 218.907 258.723 219.035 259.448 219.291C260.173 219.547 260.792 219.867 261.304 220.251C261.859 220.635 262.285 221.04 262.584 221.467L259.768 225.691ZM271.233 240.027V269.467H266.113V240.027H271.233ZM280.128 245.659C279.446 245.147 278.827 244.784 278.273 244.571C277.718 244.315 277.014 244.187 276.161 244.187C274.881 244.187 273.878 244.507 273.153 245.147C272.427 245.787 271.915 246.662 271.617 247.771C271.361 248.88 271.233 250.139 271.233 251.547H268.929C268.929 249.2 269.334 247.131 270.145 245.339C270.998 243.504 272.086 242.054 273.409 240.987C274.731 239.92 276.075 239.387 277.441 239.387C278.507 239.387 279.489 239.536 280.385 239.835C281.323 240.091 282.177 240.624 282.945 241.435L280.128 245.659ZM284.553 254.747C284.553 251.76 285.214 249.115 286.536 246.811C287.902 244.507 289.737 242.694 292.041 241.371C294.345 240.048 296.926 239.387 299.785 239.387C302.686 239.387 305.267 240.048 307.529 241.371C309.833 242.694 311.646 244.507 312.969 246.811C314.334 249.115 315.017 251.76 315.017 254.747C315.017 257.691 314.334 260.336 312.969 262.683C311.646 264.987 309.833 266.8 307.529 268.123C305.267 269.446 302.686 270.107 299.785 270.107C296.926 270.107 294.345 269.446 292.041 268.123C289.737 266.8 287.902 264.987 286.536 262.683C285.214 260.336 284.553 257.691 284.553 254.747ZM289.737 254.747C289.737 256.795 290.163 258.608 291.017 260.187C291.913 261.766 293.107 263.024 294.601 263.963C296.137 264.859 297.865 265.307 299.785 265.307C301.705 265.307 303.411 264.859 304.905 263.963C306.441 263.024 307.635 261.766 308.489 260.187C309.385 258.608 309.833 256.795 309.833 254.747C309.833 252.699 309.385 250.886 308.489 249.307C307.635 247.686 306.441 246.427 304.905 245.531C303.411 244.635 301.705 244.187 299.785 244.187C297.865 244.187 296.137 244.635 294.601 245.531C293.107 246.427 291.913 247.686 291.017 249.307C290.163 250.886 289.737 252.699 289.737 254.747ZM340.93 251.547C340.93 249.115 340.397 247.28 339.33 246.043C338.263 244.806 336.706 244.187 334.658 244.187C333.165 244.187 331.842 244.507 330.69 245.147C329.581 245.744 328.706 246.598 328.066 247.707C327.469 248.816 327.17 250.096 327.17 251.547V269.467H322.05V240.027H327.17V244.635C328.151 242.843 329.367 241.52 330.818 240.667C332.311 239.814 334.018 239.387 335.938 239.387C339.053 239.387 341.506 240.432 343.298 242.523C345.133 244.571 346.05 247.366 346.05 250.907V269.467H340.93V251.547ZM351.195 240.027H365.915V244.827H351.195V240.027ZM355.995 229.787H361.115V269.467H355.995V229.787ZM366.57 256.667V251.867H379.37V256.667H366.57ZM395.88 270.107C393.149 270.107 390.717 269.467 388.584 268.187C386.493 266.864 384.85 265.051 383.656 262.747C382.504 260.443 381.928 257.776 381.928 254.747C381.928 251.675 382.525 248.987 383.72 246.683C384.957 244.379 386.664 242.587 388.84 241.307C391.058 240.027 393.618 239.387 396.52 239.387C399.421 239.387 401.896 240.006 403.944 241.243C406.034 242.438 407.634 244.166 408.744 246.427C409.853 248.688 410.408 251.376 410.408 254.491C410.408 254.79 410.386 255.11 410.344 255.451C410.344 255.75 410.344 255.942 410.344 256.027H385.192V251.675H406.312L404.264 254.619C404.392 254.406 404.52 254.086 404.648 253.659C404.776 253.19 404.84 252.806 404.84 252.507C404.84 250.758 404.477 249.243 403.752 247.963C403.069 246.683 402.109 245.68 400.872 244.955C399.634 244.23 398.184 243.867 396.52 243.867C394.557 243.867 392.872 244.294 391.464 245.147C390.098 245.958 389.032 247.152 388.264 248.731C387.538 250.267 387.154 252.166 387.112 254.427C387.112 256.731 387.474 258.694 388.2 260.315C388.925 261.936 389.992 263.174 391.4 264.027C392.808 264.88 394.514 265.307 396.52 265.307C398.525 265.307 400.296 264.88 401.832 264.027C403.368 263.131 404.669 261.787 405.736 259.995L409.896 262.619C408.36 265.094 406.418 266.971 404.072 268.251C401.768 269.488 399.037 270.107 395.88 270.107ZM436.305 251.547C436.305 249.115 435.772 247.28 434.705 246.043C433.638 244.806 432.081 244.187 430.033 244.187C428.54 244.187 427.217 244.507 426.065 245.147C424.956 245.744 424.081 246.598 423.441 247.707C422.844 248.816 422.545 250.096 422.545 251.547V269.467H417.425V240.027H422.545V244.635C423.526 242.843 424.742 241.52 426.193 240.667C427.686 239.814 429.393 239.387 431.313 239.387C434.428 239.387 436.881 240.432 438.673 242.523C440.508 244.571 441.425 247.366 441.425 250.907V269.467H436.305V251.547ZM473.13 219.547H478.25V269.467H473.13V219.547ZM448.49 254.747C448.49 251.547 449.151 248.816 450.474 246.555C451.797 244.251 453.567 242.48 455.786 241.243C458.005 240.006 460.437 239.387 463.082 239.387C465.557 239.387 467.711 240.006 469.546 241.243C471.381 242.48 472.81 244.251 473.834 246.555C474.901 248.816 475.434 251.547 475.434 254.747C475.434 257.904 474.901 260.635 473.834 262.939C472.81 265.243 471.381 267.014 469.546 268.251C467.711 269.488 465.557 270.107 463.082 270.107C460.437 270.107 458.005 269.488 455.786 268.251C453.567 267.014 451.797 265.243 450.474 262.939C449.151 260.635 448.49 257.904 448.49 254.747ZM453.674 254.747C453.674 257.008 454.122 258.928 455.018 260.507C455.957 262.086 457.194 263.28 458.73 264.091C460.266 264.902 461.93 265.307 463.722 265.307C465.215 265.307 466.687 264.902 468.138 264.091C469.589 263.28 470.783 262.086 471.722 260.507C472.661 258.928 473.13 257.008 473.13 254.747C473.13 252.486 472.661 250.566 471.722 248.987C470.783 247.408 469.589 246.214 468.138 245.403C466.687 244.592 465.215 244.187 463.722 244.187C461.93 244.187 460.266 244.592 458.73 245.403C457.194 246.214 455.957 247.408 455.018 248.987C454.122 250.566 453.674 252.486 453.674 254.747Z" fill="white"/>
<circle cx="97.9401" cy="97.9401" r="97.9401" fill="#FF6800"/>
<path d="M77.054 142.38C90.3051 100.227 128.657 92.0158 146.176 93.1797C155.605 116.796 144.159 134.127 137.257 139.841C115.342 162.695 87.9904 151.057 77.054 142.38Z" fill="white"/>
<path d="M60.7529 111.708C72.5116 64.3644 106.476 69.4918 123.996 70.6557C170.501 101.909 125.426 86.2306 101.908 107.788C74.4714 141.105 60.7529 180.301 60.7529 111.708Z" fill="#FF6800"/>
<path d="M102.837 85.5722C113.47 86.3582 122.732 78.3643 123.525 67.7173C124.318 57.0702 116.34 47.8019 105.708 47.0159C95.0748 46.2299 85.8127 54.2239 85.0201 64.8709C85.0109 64.9943 85.0029 65.1174 84.9961 65.2404C82.9901 62.8038 80.0316 61.16 76.6371 60.9091C70.0374 60.4212 64.2885 65.383 63.7966 71.9915C63.3046 78.6 68.2559 84.3527 74.8556 84.8406C80.7931 85.2795 86.0419 81.3076 87.3937 75.6939C90.4465 81.1826 96.1105 85.0749 102.837 85.5722Z" fill="white"/>
<path fill-rule="evenodd" clip-rule="evenodd" d="M127.296 68.9293C127.352 68.2814 127.38 67.6257 127.38 66.9635C127.38 54.4499 117.215 44.2962 104.664 44.2962C94.5717 44.2962 86.0231 50.8604 83.0602 59.9392C80.6382 58.5 77.8063 57.6712 74.7804 57.6712C71.6812 57.6712 68.7861 58.539 66.3252 60.0439C56.9467 65.779 56.0457 81.7403 64.9475 88.1905C56.275 102.784 52.1334 129.441 67.6134 157.399L71.613 164.622L74.0323 156.732C74.9756 153.656 76.1906 150.259 77.7015 146.691C85.5855 152.755 95.6658 156.664 106.357 156.664C132.042 156.664 152.863 135.915 152.863 110.32C152.863 103.603 151.427 97.2098 148.84 91.4381C144.471 81.6905 136.826 73.7253 127.296 68.9293ZM104.664 51.2796C104.43 51.2796 104.189 51.2811 103.941 51.284C96.8908 51.3671 89.3871 57.8214 86.8773 64.6833C86.4692 65.7991 85.4585 66.6329 84.2704 66.6329C82.6532 65.3063 79.3055 63.1194 75.4771 63.1194C69.0568 63.1194 66.2218 67.9376 66.2218 67.9376C66.2218 67.9376 67.0199 67.4682 71.3182 67.1508C75.6166 66.8333 80.5513 69.0869 84.3782 73.1012C84.3782 73.1012 78.5588 70.7204 72.9109 70.7353C72.9109 70.7353 72.2322 73.225 74.7804 73.8382C76.9631 74.3635 78.6445 72.547 78.6445 72.547C78.6445 74.826 76.472 77.2128 74.1851 77.2128C71.8981 77.2128 68.542 75.3954 68.542 71.1763C66.2218 71.484 64.9475 72.547 64.9475 72.547C63.6736 78.6371 68.9645 83.5258 74.038 83.5258C83.3173 83.5258 86.3045 74.4515 86.3045 74.4515V71.484C87.6464 68.4843 89.4186 65.6483 91.5195 63.1178C96.0822 57.622 102.729 54.1107 109.861 53.5015C101.908 56.8339 100.329 60.5685 99.5123 61.1887C99.5123 61.1887 100.074 64.6833 103.578 64.6833C106.444 64.6833 107.4 63.0962 107.4 63.0962C107.4 63.0962 107.081 69.6692 100.711 69.6692C98.0163 69.6692 95.7559 67.8169 95.1418 65.3204C92.5114 68.4088 92.0697 69.8589 90.984 73.8382C90.984 73.9712 91.0319 74.2904 91.1885 74.7507C91.312 75.1138 91.4529 75.4183 91.5358 75.5797C94.3515 79.846 99.1821 82.6474 104.664 82.6474C113.334 82.6474 120.373 75.6306 120.373 66.9635C120.373 58.2963 113.334 51.2796 104.664 51.2796ZM88.3268 82.7125C85.7636 86.5999 78.3912 90.1503 72.6253 89.1268C65.0183 100.538 60.6519 122.674 70.1922 146.548C74.3433 136.051 80.9958 123.748 90.8348 113.239C102.424 100.861 118.474 90.952 139.91 89.5415C136.366 83.8717 131.414 79.1644 125.544 75.9067C122.068 83.9765 114.03 89.6307 104.664 89.6307C98.2467 89.6307 92.4539 86.9738 88.3268 82.7125ZM80.7264 140.157C87.666 145.939 96.789 149.681 106.357 149.681C128.171 149.681 145.855 132.059 145.855 110.32C145.855 105.405 144.953 100.707 143.306 96.3765C122.454 96.9053 107.081 106.125 95.9587 118.003C89.4976 124.904 84.4861 132.693 80.7264 140.157Z" fill="#202020"/>
<path d="M94.1175 23.5175L80.896 45.7L96.5002 31.3133L103.008 31.3735L94.1175 23.5175Z" fill="#202020"/>
<path d="M68.3907 45.426C67.1418 42.7459 64.8127 40.5591 61.7501 39.5476C55.8866 37.611 49.555 40.7158 47.608 46.4822C46.414 50.0184 47.1462 53.7345 49.2434 56.5265C49.2165 55.1952 49.4157 53.8375 49.8662 52.5032C51.9902 46.2125 58.8974 42.8255 65.2939 44.9381C66.555 45.3547 67.7021 45.9538 68.7149 46.6957C68.6945 46.6168 68.6723 46.5302 68.6485 46.4364L68.5937 46.2201C68.5348 45.9878 68.4672 45.7209 68.3907 45.426Z" fill="#202020"/>
</svg>
